<svg xmlns="http://www.w3.org/2000/svg" width="1200" height="820" viewBox="0 0 1200 820" role="img" aria-labelledby="title desc">
<title id="title">Computational benchmark of WGBS processing</title>
<desc id="desc">Three-panel scientific figure showing measured task runtime, linear full-sample scaling, and projected cohort makespan versus concurrency.</desc>
<rect width="1200" height="820" fill="#FFFFFF"/>
<text x="55.0" y="42.0" text-anchor="start" font-family="Arial,sans-serif" font-size="24" font-weight="700" fill="#202020">Computational benchmark of WGBS processing</text>
<text x="55.0" y="67.0" text-anchor="start" font-family="Arial,sans-serif" font-size="13" font-weight="400" fill="#5A5A5A">10-million-read-pair pilot; nf-core/methylseq 4.2.0 with Bismark</text>
<text x="55.0" y="85.0" text-anchor="start" font-family="Arial,sans-serif" font-size="18" font-weight="700" fill="#202020">A</text>
<text x="83.0" y="85.0" text-anchor="start" font-family="Arial,sans-serif" font-size="16" font-weight="700" fill="#202020">Measured task runtime</text>
<line x1="240.0" y1="115" x2="240.0" y2="605" stroke="#D5D5D5" stroke-width="1"/>
<text x="240.0" y="627.0" text-anchor="middle" font-family="Arial,sans-serif" font-size="11" font-weight="400" fill="#5A5A5A">0</text>
<line x1="326.2" y1="115" x2="326.2" y2="605" stroke="#D5D5D5" stroke-width="1"/>
<text x="326.2" y="627.0" text-anchor="middle" font-family="Arial,sans-serif" font-size="11" font-weight="400" fill="#5A5A5A">30</text>
<line x1="412.5" y1="115" x2="412.5" y2="605" stroke="#D5D5D5" stroke-width="1"/>
<text x="412.5" y="627.0" text-anchor="middle" font-family="Arial,sans-serif" font-size="11" font-weight="400" fill="#5A5A5A">60</text>
<line x1="498.8" y1="115" x2="498.8" y2="605" stroke="#D5D5D5" stroke-width="1"/>
<text x="498.8" y="627.0" text-anchor="middle" font-family="Arial,sans-serif" font-size="11" font-weight="400" fill="#5A5A5A">90</text>
<line x1="585.0" y1="115" x2="585.0" y2="605" stroke="#D5D5D5" stroke-width="1"/>
<text x="585.0" y="627.0" text-anchor="middle" font-family="Arial,sans-serif" font-size="11" font-weight="400" fill="#5A5A5A">120</text>
<text x="230.0" y="132.0" text-anchor="end" font-family="Arial,sans-serif" font-size="11" font-weight="400" fill="#202020">FastQC</text>
<rect x="240" y="120" width="3.9" height="16" fill="#B9C3CC"/>
<text x="249.9" y="133.0" text-anchor="start" font-family="Arial,sans-serif" font-size="10" font-weight="700" fill="#202020">1.4 min</text>
<text x="230.0" y="181.0" text-anchor="end" font-family="Arial,sans-serif" font-size="11" font-weight="400" fill="#202020">Trim Galore</text>
<rect x="240" y="169" width="15.3" height="16" fill="#B9C3CC"/>
<text x="261.3" y="182.0" text-anchor="start" font-family="Arial,sans-serif" font-size="10" font-weight="700" fill="#202020">5.3 min</text>
<text x="230.0" y="230.0" text-anchor="end" font-family="Arial,sans-serif" font-size="11" font-weight="400" fill="#202020">Bismark alignment</text>
<rect x="240" y="218" width="304.4" height="16" fill="#2B6EA6"/>
<text x="550.4" y="231.0" text-anchor="start" font-family="Arial,sans-serif" font-size="10" font-weight="700" fill="#202020">105.9 min</text>
<text x="230.0" y="279.0" text-anchor="end" font-family="Arial,sans-serif" font-size="11" font-weight="400" fill="#202020">Bismark deduplication</text>
<rect x="240" y="267" width="5.8" height="16" fill="#B9C3CC"/>
<text x="251.8" y="280.0" text-anchor="start" font-family="Arial,sans-serif" font-size="10" font-weight="700" fill="#202020">2.0 min</text>
<text x="230.0" y="328.0" text-anchor="end" font-family="Arial,sans-serif" font-size="11" font-weight="400" fill="#202020">SAMtools sort</text>
<rect x="240" y="316" width="2.5" height="16" fill="#B9C3CC"/>
<text x="248.5" y="329.0" text-anchor="start" font-family="Arial,sans-serif" font-size="10" font-weight="700" fill="#202020">44.0 s</text>
<text x="230.0" y="377.0" text-anchor="end" font-family="Arial,sans-serif" font-size="11" font-weight="400" fill="#202020">SAMtools index</text>
<rect x="240" y="365" width="2.5" height="16" fill="#B9C3CC"/>
<text x="248.5" y="378.0" text-anchor="start" font-family="Arial,sans-serif" font-size="10" font-weight="700" fill="#202020">7.0 s</text>
<text x="230.0" y="426.0" text-anchor="end" font-family="Arial,sans-serif" font-size="11" font-weight="400" fill="#202020">Methylation extraction</text>
<rect x="240" y="414" width="24.7" height="16" fill="#B9C3CC"/>
<text x="270.7" y="427.0" text-anchor="start" font-family="Arial,sans-serif" font-size="10" font-weight="700" fill="#202020">8.6 min</text>
<text x="230.0" y="475.0" text-anchor="end" font-family="Arial,sans-serif" font-size="11" font-weight="400" fill="#202020">Bismark summary</text>
<rect x="240" y="463" width="2.5" height="16" fill="#B9C3CC"/>
<text x="248.5" y="476.0" text-anchor="start" font-family="Arial,sans-serif" font-size="10" font-weight="700" fill="#202020">0.3 s</text>
<text x="230.0" y="524.0" text-anchor="end" font-family="Arial,sans-serif" font-size="11" font-weight="400" fill="#202020">Bismark report</text>
<rect x="240" y="512" width="2.5" height="16" fill="#B9C3CC"/>
<text x="248.5" y="525.0" text-anchor="start" font-family="Arial,sans-serif" font-size="10" font-weight="700" fill="#202020">0.6 s</text>
<text x="230.0" y="573.0" text-anchor="end" font-family="Arial,sans-serif" font-size="11" font-weight="400" fill="#202020">MultiQC</text>
<rect x="240" y="561" width="2.5" height="16" fill="#B9C3CC"/>
<text x="248.5" y="574.0" text-anchor="start" font-family="Arial,sans-serif" font-size="10" font-weight="700" fill="#202020">17.3 s</text>
<line x1="240" y1="605" x2="585" y2="605" stroke="#202020"/>
<text x="412.5" y="653.0" text-anchor="middle" font-family="Arial,sans-serif" font-size="12" font-weight="400" fill="#202020">Real execution time (min)</text>
<text x="665.0" y="85.0" text-anchor="start" font-family="Arial,sans-serif" font-size="18" font-weight="700" fill="#202020">B</text>
<text x="693.0" y="85.0" text-anchor="start" font-family="Arial,sans-serif" font-size="16" font-weight="700" fill="#202020">Input-size scaling</text>
<line x1="723.0" y1="115" x2="723.0" y2="345" stroke="#D5D5D5"/>
<text x="723.0" y="364.0" text-anchor="middle" font-family="Arial,sans-serif" font-size="10" font-weight="400" fill="#5A5A5A">0</text>
<line x1="813.2" y1="115" x2="813.2" y2="345" stroke="#D5D5D5"/>
<text x="813.2" y="364.0" text-anchor="middle" font-family="Arial,sans-serif" font-size="10" font-weight="400" fill="#5A5A5A">25</text>
<line x1="903.5" y1="115" x2="903.5" y2="345" stroke="#D5D5D5"/>
<text x="903.5" y="364.0" text-anchor="middle" font-family="Arial,sans-serif" font-size="10" font-weight="400" fill="#5A5A5A">50</text>
<line x1="993.7" y1="115" x2="993.7" y2="345" stroke="#D5D5D5"/>
<text x="993.7" y="364.0" text-anchor="middle" font-family="Arial,sans-serif" font-size="10" font-weight="400" fill="#5A5A5A">75</text>
<line x1="1083.9" y1="115" x2="1083.9" y2="345" stroke="#D5D5D5"/>
<text x="1083.9" y="364.0" text-anchor="middle" font-family="Arial,sans-serif" font-size="10" font-weight="400" fill="#5A5A5A">100</text>
<line x1="723" y1="345.0" x2="1120" y2="345.0" stroke="#D5D5D5"/>
<text x="714.0" y="349.0" text-anchor="end" font-family="Arial,sans-serif" font-size="10" font-weight="400" fill="#5A5A5A">0</text>
<line x1="723" y1="279.3" x2="1120" y2="279.3" stroke="#D5D5D5"/>
<text x="714.0" y="283.3" text-anchor="end" font-family="Arial,sans-serif" font-size="10" font-weight="400" fill="#5A5A5A">50</text>
<line x1="723" y1="213.6" x2="1120" y2="213.6" stroke="#D5D5D5"/>
<text x="714.0" y="217.6" text-anchor="end" font-family="Arial,sans-serif" font-size="10" font-weight="400" fill="#5A5A5A">100</text>
<line x1="723" y1="147.9" x2="1120" y2="147.9" stroke="#D5D5D5"/>
<text x="714.0" y="151.9" text-anchor="end" font-family="Arial,sans-serif" font-size="10" font-weight="400" fill="#5A5A5A">150</text>
<line x1="727.8" y1="342.3" x2="1086.9" y2="139.1" stroke="#2B6EA6" stroke-width="2" stroke-dasharray="6 5"/>
<circle cx="727.8" cy="342.3" r="5" fill="#2B6EA6"/>
<circle cx="1086.9" cy="139.1" r="6" fill="#FFFFFF" stroke="#2B6EA6" stroke-width="2"/>
<text x="737.8" y="334.3" text-anchor="start" font-family="Arial,sans-serif" font-size="10" font-weight="400" fill="#202020">Pilot: 1.33 GB, 2.06 h</text>
<text x="1078.9" y="129.1" text-anchor="end" font-family="Arial,sans-serif" font-size="10" font-weight="400" fill="#202020">Projected full sample</text>
<text x="1078.9" y="144.1" text-anchor="end" font-family="Arial,sans-serif" font-size="10" font-weight="400" fill="#202020">100.83 GB, 156.7 h</text>
<line x1="723" y1="345" x2="1120" y2="345" stroke="#202020"/>
<line x1="723" y1="115" x2="723" y2="345" stroke="#202020"/>
<text x="921.5" y="388.0" text-anchor="middle" font-family="Arial,sans-serif" font-size="11" font-weight="400" fill="#202020">Compressed paired FASTQ input (GB)</text>
<text x="678" y="230.0" transform="rotate(-90 678 230.0)" text-anchor="middle" font-family="Arial,sans-serif" font-size="11" fill="#202020">Workflow wall time (h)</text>
<circle cx="915" cy="88" r="4" fill="#2B6EA6"/>
<text x="924.0" y="92.0" text-anchor="start" font-family="Arial,sans-serif" font-size="10" font-weight="400" fill="#5A5A5A">measured</text>
<circle cx="1002" cy="88" r="5" fill="#FFFFFF" stroke="#2B6EA6" stroke-width="2"/>
<text x="1012.0" y="92.0" text-anchor="start" font-family="Arial,sans-serif" font-size="10" font-weight="400" fill="#5A5A5A">linear projection</text>
<text x="665.0" y="450.0" text-anchor="start" font-family="Arial,sans-serif" font-size="18" font-weight="700" fill="#202020">C</text>
<text x="693.0" y="450.0" text-anchor="start" font-family="Arial,sans-serif" font-size="16" font-weight="700" fill="#202020">Projected 30-sample makespan</text>
<line x1="723.0" y1="480" x2="723.0" y2="690" stroke="#D5D5D5"/>
<text x="723.0" y="709.0" text-anchor="middle" font-family="Arial,sans-serif" font-size="10" font-weight="400" fill="#5A5A5A">1</text>
<line x1="811.2" y1="480" x2="811.2" y2="690" stroke="#D5D5D5"/>
<text x="811.2" y="709.0" text-anchor="middle" font-family="Arial,sans-serif" font-size="10" font-weight="400" fill="#5A5A5A">3</text>
<line x1="899.4" y1="480" x2="899.4" y2="690" stroke="#D5D5D5"/>
<text x="899.4" y="709.0" text-anchor="middle" font-family="Arial,sans-serif" font-size="10" font-weight="400" fill="#5A5A5A">5</text>
<line x1="987.7" y1="480" x2="987.7" y2="690" stroke="#D5D5D5"/>
<text x="987.7" y="709.0" text-anchor="middle" font-family="Arial,sans-serif" font-size="10" font-weight="400" fill="#5A5A5A">7</text>
<line x1="1120.0" y1="480" x2="1120.0" y2="690" stroke="#D5D5D5"/>
<text x="1120.0" y="709.0" text-anchor="middle" font-family="Arial,sans-serif" font-size="10" font-weight="400" fill="#5A5A5A">10</text>
<line x1="723" y1="690.0" x2="1120" y2="690.0" stroke="#D5D5D5"/>
<text x="714.0" y="694.0" text-anchor="end" font-family="Arial,sans-serif" font-size="10" font-weight="400" fill="#5A5A5A">0</text>
<line x1="723" y1="640.0" x2="1120" y2="640.0" stroke="#D5D5D5"/>
<text x="714.0" y="644.0" text-anchor="end" font-family="Arial,sans-serif" font-size="10" font-weight="400" fill="#5A5A5A">50</text>
<line x1="723" y1="590.0" x2="1120" y2="590.0" stroke="#D5D5D5"/>
<text x="714.0" y="594.0" text-anchor="end" font-family="Arial,sans-serif" font-size="10" font-weight="400" fill="#5A5A5A">100</text>
<line x1="723" y1="540.0" x2="1120" y2="540.0" stroke="#D5D5D5"/>
<text x="714.0" y="544.0" text-anchor="end" font-family="Arial,sans-serif" font-size="10" font-weight="400" fill="#5A5A5A">150</text>
<line x1="723" y1="490.0" x2="1120" y2="490.0" stroke="#D5D5D5"/>
<text x="714.0" y="494.0" text-anchor="end" font-family="Arial,sans-serif" font-size="10" font-weight="400" fill="#5A5A5A">200</text>
<polyline points="723.0,494.1 767.1,592.1 811.2,624.7 855.3,641.0 899.4,650.8 943.6,657.4 987.7,662.0 1031.8,665.5 1075.9,668.2 1120.0,670.4" fill="none" stroke="#2B6EA6" stroke-width="2"/>
<circle cx="723.0" cy="494.1" r="3.5" fill="#2B6EA6"/>
<text x="730.0" y="486.1" text-anchor="start" font-family="Arial,sans-serif" font-size="10" font-weight="400" fill="#202020">195.8 d</text>
<circle cx="767.1" cy="592.1" r="3.5" fill="#2B6EA6"/>
<circle cx="811.2" cy="624.7" r="3.5" fill="#2B6EA6"/>
<text x="818.2" y="616.7" text-anchor="start" font-family="Arial,sans-serif" font-size="10" font-weight="400" fill="#202020">65.3 d</text>
<circle cx="855.3" cy="641.0" r="3.5" fill="#2B6EA6"/>
<circle cx="899.4" cy="650.8" r="3.5" fill="#2B6EA6"/>
<text x="906.4" y="642.8" text-anchor="start" font-family="Arial,sans-serif" font-size="10" font-weight="400" fill="#202020">39.2 d</text>
<circle cx="943.6" cy="657.4" r="3.5" fill="#2B6EA6"/>
<circle cx="987.7" cy="662.0" r="3.5" fill="#2B6EA6"/>
<circle cx="1031.8" cy="665.5" r="3.5" fill="#2B6EA6"/>
<circle cx="1075.9" cy="668.2" r="3.5" fill="#2B6EA6"/>
<circle cx="1120.0" cy="670.4" r="3.5" fill="#2B6EA6"/>
<text x="1113.0" y="662.4" text-anchor="end" font-family="Arial,sans-serif" font-size="10" font-weight="400" fill="#202020">19.6 d</text>
<line x1="723" y1="690" x2="1120" y2="690" stroke="#202020"/>
<line x1="723" y1="480" x2="723" y2="690" stroke="#202020"/>
<text x="921.5" y="733.0" text-anchor="middle" font-family="Arial,sans-serif" font-size="11" font-weight="400" fill="#202020">Concurrent full-sample workflows (n)</text>
<text x="678" y="585.0" transform="rotate(-90 678 585.0)" text-anchor="middle" font-family="Arial,sans-serif" font-size="11" fill="#202020">Projected elapsed time (days)</text>
<line x1="55" y1="760" x2="1135" y2="760" stroke="#202020" stroke-width="0.8"/>
<text x="55.0" y="785.0" text-anchor="start" font-family="Arial,sans-serif" font-size="10" font-weight="400" fill="#5A5A5A">Measured pilot: 10M read pairs. Projections assume linear scaling by compressed input bytes; queue delay, retries, chunk overhead, and shared-filesystem contention are excluded.</text>
<text x="1135.0" y="805.0" text-anchor="end" font-family="Arial,sans-serif" font-size="9" font-weight="400" fill="#5A5A5A">Source: benchmarks/pilot-summary.tsv; pilot-task-metrics.tsv</text>
</svg>
